<?xml version="1.0" standalone="no"?>
<!DOCTYPE svg PUBLIC "-//W3C//DTD SVG 20010904//EN"
 "http://www.w3.org/TR/2001/REC-SVG-20010904/DTD/svg10.dtd">
<svg version="1.0" xmlns="http://www.w3.org/2000/svg"
 width="195.000000pt" height="63.000000pt" viewBox="0 0 195.000000 63.000000"
 preserveAspectRatio="xMidYMid meet">

<g transform="translate(0.000000,63.000000) scale(0.100000,-0.100000)"
fill="#000000" stroke="none">
<path d="M290 606 c-52 -14 -133 -66 -156 -102 -11 -16 -26 -24 -45 -24 -32 0
-79 -19 -79 -32 0 -5 8 -11 17 -14 60 -17 102 -48 122 -87 11 -23 22 -50 25
-60 3 -9 9 -17 14 -17 12 0 32 46 32 75 0 16 16 41 45 70 47 47 77 103 89 168
8 42 6 42 -64 23z m-20 -76 c24 -24 25 -34 4 -54 -29 -29 -74 -13 -74 25 0 19
25 49 41 49 5 0 18 -9 29 -20z"/>
<path d="M780 375 c0 -98 1 -105 20 -105 19 0 20 7 20 105 0 98 -1 105 -20
105 -19 0 -20 -7 -20 -105z"/>
<path d="M370 423 c0 -9 11 -29 25 -43 l25 -26 -25 -24 c-26 -24 -34 -60 -13
-60 7 0 25 12 40 27 l28 27 28 -27 c29 -28 62 -36 62 -15 0 7 -14 26 -30 43
l-30 31 30 29 c16 16 30 35 30 42 0 22 -32 15 -62 -14 l-28 -27 -28 27 c-32
31 -52 35 -52 10z"/>
<path d="M570 330 c0 -103 1 -110 20 -110 16 0 20 7 20 30 0 34 -1 34 35 20
40 -15 90 10 104 53 13 38 7 62 -22 95 -23 25 -84 31 -105 10 -9 -9 -12 -9
-12 0 0 7 -9 12 -20 12 -19 0 -20 -7 -20 -110z m130 60 c11 -11 20 -28 20 -37
0 -25 -30 -53 -56 -53 -23 0 -54 33 -54 57 0 18 37 53 55 53 8 0 24 -9 35 -20z"/>
<path d="M882 420 c-48 -45 -35 -121 25 -146 62 -27 123 14 123 83 0 72 -95
112 -148 63z m92 -23 c38 -28 13 -97 -35 -97 -43 0 -63 57 -32 92 19 21 42 23
67 5z"/>
<path d="M1060 355 c0 -78 2 -85 20 -85 17 0 20 7 20 49 0 67 6 79 46 87 19 3
34 12 34 20 0 19 -39 18 -62 -3 -17 -15 -18 -15 -18 0 0 10 -8 17 -20 17 -18
0 -20 -7 -20 -85z"/>
<path d="M22 338 c-6 -6 -12 -25 -12 -41 0 -26 3 -28 31 -25 39 4 59 30 43 56
-14 21 -45 27 -62 10z"/>
<path d="M398 169 c-13 -7 -18 -23 -18 -60 0 -43 3 -51 25 -61 22 -10 29 -9
47 10 25 25 17 43 -9 20 -27 -23 -43 -11 -43 32 0 43 16 55 43 32 24 -21 34
-7 12 18 -20 22 -32 24 -57 9z"/>
<path d="M660 154 c0 -19 -4 -25 -15 -20 -18 6 -45 -19 -45 -42 0 -28 15 -43
48 -47 l32 -4 0 69 c0 40 -4 70 -10 70 -5 0 -10 -12 -10 -26z m-5 -64 c0 -27
-20 -38 -28 -15 -8 20 3 47 17 42 6 -2 11 -14 11 -27z"/>
<path d="M720 165 c0 -8 5 -15 10 -15 6 0 10 7 10 15 0 8 -4 15 -10 15 -5 0
-10 -7 -10 -15z"/>
<path d="M1058 169 c-13 -7 -18 -23 -18 -60 0 -43 3 -51 25 -61 22 -10 29 -9
47 10 25 25 17 43 -9 20 -27 -23 -43 -11 -43 32 0 43 16 55 43 32 24 -21 34
-7 12 18 -20 22 -32 24 -57 9z"/>
<path d="M1160 110 c0 -40 4 -70 10 -70 6 0 10 15 10 34 0 38 17 57 31 35 5
-8 9 -26 9 -41 0 -16 5 -28 10 -28 13 0 13 41 0 75 -8 20 -15 25 -30 20 -16
-5 -20 -2 -20 19 0 14 -4 26 -10 26 -6 0 -10 -30 -10 -70z"/>
<path d="M1380 116 c0 -36 5 -68 11 -71 15 -10 15 -8 11 68 -5 86 -22 88 -22
3z"/>
<path d="M1440 116 c0 -36 5 -68 11 -71 15 -10 15 -8 11 68 -5 86 -22 88 -22
3z"/>
<path d="M506 124 c-18 -17 -18 -20 -10 -51 7 -25 32 -37 58 -27 22 8 22 79 0
88 -24 9 -31 8 -48 -10z m48 -19 c7 -20 -3 -45 -19 -45 -16 0 -26 25 -19 45 4
8 12 15 19 15 7 0 15 -7 19 -15z"/>
<path d="M720 90 c0 -27 5 -50 10 -50 6 0 10 23 10 50 0 28 -4 50 -10 50 -5 0
-10 -22 -10 -50z"/>
<path d="M770 89 c0 -27 5 -49 10 -49 6 0 10 15 10 34 0 38 17 57 31 35 5 -8
9 -26 9 -41 0 -16 5 -28 10 -28 12 0 12 46 1 75 -5 13 -18 20 -39 21 -32 2
-32 1 -32 -47z"/>
<path d="M883 122 c-28 -28 -1 -88 34 -75 11 4 14 2 11 -8 -2 -7 -15 -16 -29
-20 -22 -6 -22 -7 -5 -14 34 -15 51 7 54 73 3 60 3 60 -24 58 -15 0 -33 -7
-41 -14z m42 -32 c0 -13 -5 -25 -11 -27 -14 -5 -25 22 -17 42 8 23 28 12 28
-15z"/>
<path d="M1282 133 c-6 -2 -10 -9 -7 -13 3 -5 12 -7 19 -4 8 3 17 1 21 -5 3
-6 -2 -11 -13 -11 -11 0 -25 -7 -32 -15 -18 -21 1 -39 40 -41 28 -2 30 0 30
37 0 28 -5 41 -19 49 -11 5 -21 10 -23 9 -2 0 -9 -3 -16 -6z m38 -63 c0 -5 -9
-10 -20 -10 -11 0 -20 5 -20 10 0 6 9 10 20 10 11 0 20 -4 20 -10z"/>
<path d="M1513 132 c-12 -8 -18 -31 -15 -64 2 -21 36 -32 59 -19 16 9 14 10
-9 11 -15 0 -30 4 -33 10 -4 6 7 10 24 10 23 0 31 5 31 18 0 33 -30 51 -57 34z
m37 -27 c0 -8 -6 -15 -14 -15 -17 0 -28 14 -19 24 12 12 33 6 33 -9z"/>
<path d="M1610 89 c0 -27 5 -49 10 -49 6 0 10 15 10 34 0 38 17 57 31 35 5 -8
9 -26 9 -41 0 -16 5 -28 10 -28 12 0 12 46 1 75 -5 13 -18 20 -39 21 -32 2
-32 1 -32 -47z"/>
<path d="M1723 122 c-28 -28 -1 -88 34 -75 11 4 14 2 11 -8 -2 -7 -15 -16 -29
-20 -22 -6 -22 -7 -5 -14 34 -15 51 7 54 73 3 60 3 60 -24 58 -15 0 -33 -7
-41 -14z m42 -32 c0 -13 -5 -25 -11 -27 -14 -5 -25 22 -17 42 8 23 28 12 28
-15z"/>
<path d="M1843 132 c-12 -8 -18 -31 -15 -64 2 -21 36 -32 59 -19 16 9 14 10
-9 11 -15 0 -30 4 -33 10 -4 6 7 10 24 10 23 0 31 5 31 18 0 33 -30 51 -57 34z
m37 -27 c0 -8 -6 -15 -14 -15 -17 0 -28 14 -19 24 12 12 33 6 33 -9z"/>
</g>
</svg>
